#!OML:ASF E:\basketball\basketball\Project 1\Capture day 1\Session 1\Subject.ASF
:FULLY-SPECIFIED
:DEGREES
102
root -20.8051 12.8976 1.0125 215.231 60.8977 193.093
lowerback 19.7593 -4.04604 -6.11417
upperback 10.1728 -5.21255 3.34105
thorax 0.986209 -2.60256 7.9864
lowerneck -26.0929 -15.7647 -26.6889
upperneck -4.03985 -16.5689 42.5622
head 11.1661 -5.34369 18.4986
rclavicle 6.36111e-014 -1.59028e-015
rhumerus 5.42323 20.8765 -92.7248
rradius 112.844
rwrist -5.22776
rhand -24.2817 21.7812
rfingers 7.12502
rthumb 2.20526 -8.18719
lclavicle 6.36111e-014 -1.59028e-015
lhumerus -16.491 13.8147 87.5887
lradius 74.1723
lwrist 190.308
lhand -9.8813 -22.1555
lfingers 7.12502
lthumb 16.098 7.19585
rfemur -78.4928 -0.968246 9.92888
rtibia 74.1622
rfoot -16.1506 -6.55102
rtoes -46.0113
lfemur 0.351275 1.54069 -28.4503
ltibia 53.277
lfoot -3.75236 -1.97166
ltoes -36.0882
103
root -20.4719 12.8963 0.663204 215.538 61.536 192.795
lowerback 18.5142 -3.74794 -5.83516
upperback 10.0559 -4.77892 3.51605
thorax 1.39509 -2.40877 7.8573
lowerneck -26.2587 -15.9675 -26.6671
upperneck -4.1003 -16.7463 42.1107
head 11.1095 -5.41575 18.1265
rclavicle -2.54444e-014 7.23576e-014
rhumerus 8.03108 24.9198 -91.5488
rradius 111.512
rwrist -1.23633
rhand -24.0594 22.4443
rfingers 7.12502
rthumb 2.41998 -7.52169
lclavicle -2.54444e-014 7.23576e-014
lhumerus -18.313 13.1417 88.8863
lradius 70.9688
lwrist 191.121
lhand -10.7947 -23.2465
lfingers 7.12502
lthumb 15.2182 6.17376
rfemur -77.7882 -1.20914 8.36115
rtibia 74.9201
rfoot -18.5892 -4.23152
rtoes -45.6284
lfemur -1.3242 3.0074 -29.1042
ltibia 56.4072
lfoot -4.3467 -3.84283
ltoes -35.4183
104
root -20.15 12.88 0.343174 213.502 61.7553 191.287
lowerback 19.0262 -3.37706 -5.88574
upperback 10.127 -4.2867 3.58707
thorax 1.13626 -2.14328 7.92678
lowerneck -26.0621 -16.3567 -27.0617
upperneck -4.39021 -17.1969 42.1686
head 11.2004 -5.65643 18.0471
rclavicle -6.36111e-014 2.38542e-015
rhumerus 10.39 28.3455 -90.1089
rradius 109.814
rwrist 2.55974
rhand -24.4545 22.6866
rfingers 7.12502
rthumb 2.03844 -7.28345
lclavicle -6.36111e-014 2.38542e-015
lhumerus -20.0404 12.4539 90.2237
lradius 67.8844
lwrist 192.284
lhand -11.188 -25.4622
lfingers 7.12502
lthumb 14.8394 3.98641
rfemur -75.4203 -1.69111 6.329
rtibia 75.8912
rfoot -21.5048 1.3765
rtoes -35.7983
lfemur -2.29318 4.50239 -29.7293
ltibia 60.4413
lfoot -4.50741 -5.5405
ltoes -30.9681
105
root -19.8458 12.8396 0.0452104 209.618 61.2239 188.726
lowerback 20.8543 -3.15645 -5.88074
upperback 10.2748 -3.97014 3.61052
thorax 0.32429 -1.91722 8.02016
lowerneck -25.4492 -16.7316 -27.6549
upperneck -4.84419 -17.6579 42.3807
head 11.2361 -5.95166 18.0802
rclavicle 5.56597e-015 2.78299e-014
rhumerus 12.4376 31.1167 -88.7654
rradius 107.594
rwrist 6.36464
rhand -24.8618 23.553
rfingers 7.12502
rthumb 1.64508 -6.42044
lclavicle 5.56597e-015 2.78299e-014
lhumerus -21.952 11.8328 91.6281
lradius 65.42
lwrist 194.209
lhand -9.90138 -29.814
lfingers 7.12502
lthumb 16.0786 -0.461087
rfemur -71.4183 -2.82268 4.67128
rtibia 76.7554
rfoot -25.1065 -1.50703
rtoes -41.938
lfemur -2.87886 5.61434 -30.1698
ltibia 65.3268
lfoot -4.32004 -5.97936
ltoes -24.883
106
root -19.5273 12.8955 -0.29813 206.365 60.0529 187.144
lowerback 23.2587 -3.1649 -5.16447
upperback 10.2959 -3.81464 3.62669
thorax -0.933201 -1.7164 7.75628
lowerneck -24.7149 -17.0571 -28.0203
upperneck -5.24538 -18.1703 42.5376
head 11.2505 -6.28036 18.0059
rclavicle -1.43125e-014 -1.03368e-014
rhumerus 14.1043 33.461 -88.0272
rradius 104.759
rwrist 9.99037
rhand -24.8084 24.9133
rfingers 7.12502
rthumb 1.69657 -5.05968
lclavicle -1.43125e-014 -1.03368e-014
lhumerus -24.5492 11.2287 92.8152
lradius 63.9006
lwrist 197.737
lhand -5.18806 -36.4847
lfingers 7.12502
lthumb 20.6127 -7.55914
rfemur -66.1589 -3.79078 3.70292
rtibia 76.613
rfoot -27.918 -2.1365
rtoes -42.6603
lfemur -3.65674 6.62223 -29.7926
ltibia 70.546
lfoot -4.77403 -5.09381
ltoes -22.9213
107
root -19.2076 12.9862 -0.668387 205.578 58.2852 187.402
lowerback 24.8101 -3.529 -3.09856
upperback 10.1676 -3.79991 3.59467
thorax -2.01788 -1.56883 6.6333
lowerneck -24.1319 -17.3404 -28.2697
upperneck -5.65998 -18.6479 43.0063
head 11.3565 -6.56391 18.1117
rclavicle -3.65764e-014 -1.43125e-014
rhumerus 15.4126 35.5358 -87.9682
rradius 101.234
rwrist 12.5901
rhand -25.815 26.5331
rfingers 7.12502
rthumb 0.724453 -3.44545
lclavicle -3.65764e-014 -1.43125e-014
lhumerus -27.3555 13.3534 92.1905
lradius 62.834
lwrist 193.946
lhand -11.8168 -31.3135
lfingers 7.12502
lthumb 14.2335 -1.82118
rfemur -61.4946 -5.05051 4.31656
rtibia 75.8159
rfoot -29.6127 -4.05632
rtoes -44.6583
lfemur -5.93004 7.43035 -28.3372
ltibia 76.0701
lfoot -5.62696 -3.7727
ltoes -23.3326
108
root -18.9095 13.0303 -1.00801 206.016 56.2587 188.527
lowerback 25.6003 -3.78633 -0.979429
upperback 10.2385 -3.52207 4.07103
thorax -2.48318 -1.33486 5.91821
lowerneck -22.9877 -17.7518 -28.3219
upperneck -7.41489 -19.0206 43.2294
head 10.7764 -6.88257 17.8827
rclavicle -6.40087e-014 4.8901e-014
rhumerus 17.2146 36.9916 -86.9753
rradius 97.2488
rwrist 15.4009
rhand -27.2834 28.1595
rfingers 7.12502
rthumb -0.693809 -1.81907
lclavicle -6.40087e-014 4.8901e-014
lhumerus -29.6061 14.1256 92.6836
lradius 62.8531
lwrist 194.04
lhand -11.7735 -32.9836
lfingers 7.12502
lthumb 14.2753 -3.49427
rfemur -56.9946 -6.59593 5.75683
rtibia 74.5754
rfoot -30.4941 -8.98855
rtoes -47.6947
lfemur -9.37975 8.05105 -26.3106
ltibia 81.9385
lfoot -6.44992 -2.79743
ltoes -22.9435
